<svg width="20" height="20" viewBox="0 0 20 20" fill="none" xmlns="http://www.w3.org/2000/svg">
<path d="M11.5398 5.2251H9.07109C8.88984 5.2251 8.74609 5.36885 8.74609 5.5501V16.2251C8.74609 16.4063 8.88984 16.5501 9.07109 16.5501H11.5398C11.7211 16.5501 11.8648 16.4063 11.8648 16.2251V5.55635C11.8648 5.3751 11.7211 5.2251 11.5398 5.2251Z" fill="url(#paint0_linear_1108_9590)"/>
<path d="M11.5398 5.2251H9.07109C8.88984 5.2251 8.74609 5.36885 8.74609 5.5501V16.2251C8.74609 16.4063 8.88984 16.5501 9.07109 16.5501H11.5398C11.7211 16.5501 11.8648 16.4063 11.8648 16.2251V5.55635C11.8648 5.3751 11.7211 5.2251 11.5398 5.2251Z" fill="url(#paint1_linear_1108_9590)"/>
<path d="M11.5398 5.2251H9.07109C8.88984 5.2251 8.74609 5.36885 8.74609 5.5501V16.2251C8.74609 16.4063 8.88984 16.5501 9.07109 16.5501H11.5398C11.7211 16.5501 11.8648 16.4063 11.8648 16.2251V5.55635C11.8648 5.3751 11.7211 5.2251 11.5398 5.2251Z" fill="url(#paint2_radial_1108_9590)"/>
<path d="M11.5398 5.2251H9.07109C8.88984 5.2251 8.74609 5.36885 8.74609 5.5501V16.2251C8.74609 16.4063 8.88984 16.5501 9.07109 16.5501H11.5398C11.7211 16.5501 11.8648 16.4063 11.8648 16.2251V5.55635C11.8648 5.3751 11.7211 5.2251 11.5398 5.2251Z" fill="url(#paint3_radial_1108_9590)"/>
<path d="M11.5398 5.2251H9.07109C8.88984 5.2251 8.74609 5.36885 8.74609 5.5501V16.2251C8.74609 16.4063 8.88984 16.5501 9.07109 16.5501H11.5398C11.7211 16.5501 11.8648 16.4063 11.8648 16.2251V5.55635C11.8648 5.3751 11.7211 5.2251 11.5398 5.2251Z" fill="url(#paint4_radial_1108_9590)"/>
<path d="M11.5398 5.2251H9.07109C8.88984 5.2251 8.74609 5.36885 8.74609 5.5501V16.2251C8.74609 16.4063 8.88984 16.5501 9.07109 16.5501H11.5398C11.7211 16.5501 11.8648 16.4063 11.8648 16.2251V5.55635C11.8648 5.3751 11.7211 5.2251 11.5398 5.2251Z" fill="url(#paint5_radial_1108_9590)"/>
<path d="M11.5398 5.2251H9.07109C8.88984 5.2251 8.74609 5.36885 8.74609 5.5501V16.2251C8.74609 16.4063 8.88984 16.5501 9.07109 16.5501H11.5398C11.7211 16.5501 11.8648 16.4063 11.8648 16.2251V5.55635C11.8648 5.3751 11.7211 5.2251 11.5398 5.2251Z" fill="url(#paint6_radial_1108_9590)"/>
<path d="M6.59069 5.3125H9.71569C9.75634 5.31347 9.79675 5.30594 9.83432 5.29039C9.87189 5.27483 9.9058 5.2516 9.93386 5.22218C9.96193 5.19276 9.98354 5.1578 9.99731 5.11954C10.0111 5.08128 10.0167 5.04056 10.0138 5C9.85444 3.25687 8.37319 1.875 6.59069 1.875C4.92194 1.875 3.51569 3.09375 3.21569 4.68125C3.14694 5.00625 3.42194 5.3125 3.75944 5.3125H6.59069Z" fill="url(#paint7_radial_1108_9590)"/>
<path d="M6.59069 5.3125H9.71569C9.75634 5.31347 9.79675 5.30594 9.83432 5.29039C9.87189 5.27483 9.9058 5.2516 9.93386 5.22218C9.96193 5.19276 9.98354 5.1578 9.99731 5.11954C10.0111 5.08128 10.0167 5.04056 10.0138 5C9.85444 3.25687 8.37319 1.875 6.59069 1.875C4.92194 1.875 3.51569 3.09375 3.21569 4.68125C3.14694 5.00625 3.42194 5.3125 3.75944 5.3125H6.59069Z" fill="url(#paint8_radial_1108_9590)"/>
<path d="M6.59069 5.3125H9.71569C9.75634 5.31347 9.79675 5.30594 9.83432 5.29039C9.87189 5.27483 9.9058 5.2516 9.93386 5.22218C9.96193 5.19276 9.98354 5.1578 9.99731 5.11954C10.0111 5.08128 10.0167 5.04056 10.0138 5C9.85444 3.25687 8.37319 1.875 6.59069 1.875C4.92194 1.875 3.51569 3.09375 3.21569 4.68125C3.14694 5.00625 3.42194 5.3125 3.75944 5.3125H6.59069Z" fill="url(#paint9_linear_1108_9590)"/>
<path d="M6.59069 5.3125H9.71569C9.75634 5.31347 9.79675 5.30594 9.83432 5.29039C9.87189 5.27483 9.9058 5.2516 9.93386 5.22218C9.96193 5.19276 9.98354 5.1578 9.99731 5.11954C10.0111 5.08128 10.0167 5.04056 10.0138 5C9.85444 3.25687 8.37319 1.875 6.59069 1.875C4.92194 1.875 3.51569 3.09375 3.21569 4.68125C3.14694 5.00625 3.42194 5.3125 3.75944 5.3125H6.59069Z" fill="url(#paint10_linear_1108_9590)"/>
<path d="M6.59069 5.3125H9.71569C9.75634 5.31347 9.79675 5.30594 9.83432 5.29039C9.87189 5.27483 9.9058 5.2516 9.93386 5.22218C9.96193 5.19276 9.98354 5.1578 9.99731 5.11954C10.0111 5.08128 10.0167 5.04056 10.0138 5C9.85444 3.25687 8.37319 1.875 6.59069 1.875C4.92194 1.875 3.51569 3.09375 3.21569 4.68125C3.14694 5.00625 3.42194 5.3125 3.75944 5.3125H6.59069Z" fill="url(#paint11_radial_1108_9590)"/>
<path d="M6.59069 5.3125H9.71569C9.75634 5.31347 9.79675 5.30594 9.83432 5.29039C9.87189 5.27483 9.9058 5.2516 9.93386 5.22218C9.96193 5.19276 9.98354 5.1578 9.99731 5.11954C10.0111 5.08128 10.0167 5.04056 10.0138 5C9.85444 3.25687 8.37319 1.875 6.59069 1.875C4.92194 1.875 3.51569 3.09375 3.21569 4.68125C3.14694 5.00625 3.42194 5.3125 3.75944 5.3125H6.59069Z" fill="url(#paint12_radial_1108_9590)"/>
<g filter="url(#filter0_i_1108_9590)">
<path fill-rule="evenodd" clip-rule="evenodd" d="M17.975 17.5062H2.71875C3.54797 16.24 4.67962 15.2004 6.01145 14.4812C7.34328 13.7621 8.83331 13.3862 10.3469 13.3875C13.5381 13.3875 16.3456 15.025 17.975 17.5062Z" fill="url(#paint13_radial_1108_9590)"/>
</g>
<path d="M13.3653 5.3125H10.2403C10.1996 5.31347 10.1592 5.30594 10.1216 5.29039C10.0841 5.27483 10.0502 5.2516 10.0221 5.22218C9.99403 5.19276 9.97242 5.1578 9.95865 5.11954C9.94488 5.08128 9.93926 5.04056 9.94214 5C10.1015 3.25687 11.5828 1.875 13.3653 1.875C15.034 1.875 16.4403 3.09375 16.7403 4.68125C16.8028 5.0125 16.534 5.3125 16.1965 5.3125H13.3653Z" fill="url(#paint14_radial_1108_9590)"/>
<path d="M13.3653 5.3125H10.2403C10.1996 5.31347 10.1592 5.30594 10.1216 5.29039C10.0841 5.27483 10.0502 5.2516 10.0221 5.22218C9.99403 5.19276 9.97242 5.1578 9.95865 5.11954C9.94488 5.08128 9.93926 5.04056 9.94214 5C10.1015 3.25687 11.5828 1.875 13.3653 1.875C15.034 1.875 16.4403 3.09375 16.7403 4.68125C16.8028 5.0125 16.534 5.3125 16.1965 5.3125H13.3653Z" fill="url(#paint15_radial_1108_9590)"/>
<path d="M13.3653 5.3125H10.2403C10.1996 5.31347 10.1592 5.30594 10.1216 5.29039C10.0841 5.27483 10.0502 5.2516 10.0221 5.22218C9.99403 5.19276 9.97242 5.1578 9.95865 5.11954C9.94488 5.08128 9.93926 5.04056 9.94214 5C10.1015 3.25687 11.5828 1.875 13.3653 1.875C15.034 1.875 16.4403 3.09375 16.7403 4.68125C16.8028 5.0125 16.534 5.3125 16.1965 5.3125H13.3653Z" fill="url(#paint16_linear_1108_9590)"/>
<path d="M11.9843 7.5687L10.1218 5.7062C9.90306 5.48745 9.92181 5.1062 10.1781 4.9312C11.4218 4.0812 13.1468 4.21245 14.2468 5.3062C15.3468 6.4062 15.4718 8.1312 14.6218 9.37495C14.4468 9.6312 14.0656 9.6562 13.8468 9.4312L11.9843 7.5687Z" fill="url(#paint17_radial_1108_9590)"/>
<path d="M11.9843 7.5687L10.1218 5.7062C9.90306 5.48745 9.92181 5.1062 10.1781 4.9312C11.4218 4.0812 13.1468 4.21245 14.2468 5.3062C15.3468 6.4062 15.4718 8.1312 14.6218 9.37495C14.4468 9.6312 14.0656 9.6562 13.8468 9.4312L11.9843 7.5687Z" fill="url(#paint18_radial_1108_9590)"/>
<path d="M11.9843 7.5687L10.1218 5.7062C9.90306 5.48745 9.92181 5.1062 10.1781 4.9312C11.4218 4.0812 13.1468 4.21245 14.2468 5.3062C15.3468 6.4062 15.4718 8.1312 14.6218 9.37495C14.4468 9.6312 14.0656 9.6562 13.8468 9.4312L11.9843 7.5687Z" fill="url(#paint19_radial_1108_9590)"/>
<path d="M11.9843 7.5687L10.1218 5.7062C9.90306 5.48745 9.92181 5.1062 10.1781 4.9312C11.4218 4.0812 13.1468 4.21245 14.2468 5.3062C15.3468 6.4062 15.4718 8.1312 14.6218 9.37495C14.4468 9.6312 14.0656 9.6562 13.8468 9.4312L11.9843 7.5687Z" fill="url(#paint20_radial_1108_9590)"/>
<path d="M11.9843 7.5687L10.1218 5.7062C9.90306 5.48745 9.92181 5.1062 10.1781 4.9312C11.4218 4.0812 13.1468 4.21245 14.2468 5.3062C15.3468 6.4062 15.4718 8.1312 14.6218 9.37495C14.4468 9.6312 14.0656 9.6562 13.8468 9.4312L11.9843 7.5687Z" fill="url(#paint21_linear_1108_9590)"/>
<path d="M7.9032 7.61243L9.82195 5.69368C10.0469 5.46868 10.0282 5.07493 9.75945 4.89368C8.4782 4.01868 6.7032 4.14993 5.57195 5.28118C4.4407 6.41243 4.30945 8.19368 5.18445 9.46868C5.3657 9.73743 5.7532 9.75618 5.98445 9.53118L7.9032 7.61243Z" fill="url(#paint22_radial_1108_9590)"/>
<path d="M7.9032 7.61243L9.82195 5.69368C10.0469 5.46868 10.0282 5.07493 9.75945 4.89368C8.4782 4.01868 6.7032 4.14993 5.57195 5.28118C4.4407 6.41243 4.30945 8.19368 5.18445 9.46868C5.3657 9.73743 5.7532 9.75618 5.98445 9.53118L7.9032 7.61243Z" fill="url(#paint23_radial_1108_9590)"/>
<path d="M7.9032 7.61243L9.82195 5.69368C10.0469 5.46868 10.0282 5.07493 9.75945 4.89368C8.4782 4.01868 6.7032 4.14993 5.57195 5.28118C4.4407 6.41243 4.30945 8.19368 5.18445 9.46868C5.3657 9.73743 5.7532 9.75618 5.98445 9.53118L7.9032 7.61243Z" fill="url(#paint24_radial_1108_9590)"/>
<path d="M7.9032 7.61243L9.82195 5.69368C10.0469 5.46868 10.0282 5.07493 9.75945 4.89368C8.4782 4.01868 6.7032 4.14993 5.57195 5.28118C4.4407 6.41243 4.30945 8.19368 5.18445 9.46868C5.3657 9.73743 5.7532 9.75618 5.98445 9.53118L7.9032 7.61243Z" fill="url(#paint25_linear_1108_9590)"/>
<path d="M11.5332 9.38135C11.8647 9.38135 12.1827 9.24965 12.4171 9.01523C12.6515 8.78081 12.7832 8.46287 12.7832 8.13135C12.7832 7.79983 12.6515 7.48188 12.4171 7.24746C12.1827 7.01304 11.8647 6.88135 11.5332 6.88135C11.2017 6.88135 10.8837 7.01304 10.6493 7.24746C10.4149 7.48188 10.2832 7.79983 10.2832 8.13135C10.2832 8.46287 10.4149 8.78081 10.6493 9.01523C10.8837 9.24965 11.2017 9.38135 11.5332 9.38135Z" fill="url(#paint26_radial_1108_9590)"/>
<path d="M11.5332 9.38135C11.8647 9.38135 12.1827 9.24965 12.4171 9.01523C12.6515 8.78081 12.7832 8.46287 12.7832 8.13135C12.7832 7.79983 12.6515 7.48188 12.4171 7.24746C12.1827 7.01304 11.8647 6.88135 11.5332 6.88135C11.2017 6.88135 10.8837 7.01304 10.6493 7.24746C10.4149 7.48188 10.2832 7.79983 10.2832 8.13135C10.2832 8.46287 10.4149 8.78081 10.6493 9.01523C10.8837 9.24965 11.2017 9.38135 11.5332 9.38135Z" fill="url(#paint27_radial_1108_9590)"/>
<path d="M11.5332 9.38135C11.8647 9.38135 12.1827 9.24965 12.4171 9.01523C12.6515 8.78081 12.7832 8.46287 12.7832 8.13135C12.7832 7.79983 12.6515 7.48188 12.4171 7.24746C12.1827 7.01304 11.8647 6.88135 11.5332 6.88135C11.2017 6.88135 10.8837 7.01304 10.6493 7.24746C10.4149 7.48188 10.2832 7.79983 10.2832 8.13135C10.2832 8.46287 10.4149 8.78081 10.6493 9.01523C10.8837 9.24965 11.2017 9.38135 11.5332 9.38135Z" fill="url(#paint28_radial_1108_9590)"/>
<path d="M11.5332 9.38135C11.8647 9.38135 12.1827 9.24965 12.4171 9.01523C12.6515 8.78081 12.7832 8.46287 12.7832 8.13135C12.7832 7.79983 12.6515 7.48188 12.4171 7.24746C12.1827 7.01304 11.8647 6.88135 11.5332 6.88135C11.2017 6.88135 10.8837 7.01304 10.6493 7.24746C10.4149 7.48188 10.2832 7.79983 10.2832 8.13135C10.2832 8.46287 10.4149 8.78081 10.6493 9.01523C10.8837 9.24965 11.2017 9.38135 11.5332 9.38135Z" fill="url(#paint29_radial_1108_9590)"/>
<path d="M11.5332 9.38135C11.8647 9.38135 12.1827 9.24965 12.4171 9.01523C12.6515 8.78081 12.7832 8.46287 12.7832 8.13135C12.7832 7.79983 12.6515 7.48188 12.4171 7.24746C12.1827 7.01304 11.8647 6.88135 11.5332 6.88135C11.2017 6.88135 10.8837 7.01304 10.6493 7.24746C10.4149 7.48188 10.2832 7.79983 10.2832 8.13135C10.2832 8.46287 10.4149 8.78081 10.6493 9.01523C10.8837 9.24965 11.2017 9.38135 11.5332 9.38135Z" fill="url(#paint30_radial_1108_9590)"/>
<path d="M11.5332 9.38135C11.8647 9.38135 12.1827 9.24965 12.4171 9.01523C12.6515 8.78081 12.7832 8.46287 12.7832 8.13135C12.7832 7.79983 12.6515 7.48188 12.4171 7.24746C12.1827 7.01304 11.8647 6.88135 11.5332 6.88135C11.2017 6.88135 10.8837 7.01304 10.6493 7.24746C10.4149 7.48188 10.2832 7.79983 10.2832 8.13135C10.2832 8.46287 10.4149 8.78081 10.6493 9.01523C10.8837 9.24965 11.2017 9.38135 11.5332 9.38135Z" fill="url(#paint31_radial_1108_9590)"/>
<g filter="url(#filter1_ii_1108_9590)">
<path d="M19.056 17.4476C19.056 17.0863 18.8479 16.9038 18.4404 16.7595C17.9716 16.5932 17.5254 16.2563 16.7879 16.2563C15.7129 16.2563 15.7129 16.8813 14.6379 16.8813C13.5629 16.8813 13.5629 16.2563 12.4816 16.2563C11.4066 16.2563 11.4066 16.8813 10.3254 16.8813C9.25039 16.8813 9.25039 16.2563 8.16914 16.2563C7.09414 16.2563 7.09414 16.8813 6.01914 16.8813C4.94414 16.8813 4.94414 16.2563 3.86289 16.2563C3.00039 16.2563 2.65039 16.6501 2.05664 16.8063C1.76289 16.8876 1.55664 17.1563 1.55664 17.4563C1.55664 17.8313 1.85664 18.1313 2.23164 18.1313H18.3566C18.8848 18.1313 19.056 17.7063 19.056 17.4476Z" fill="url(#paint32_linear_1108_9590)"/>
</g>
<g filter="url(#filter2_f_1108_9590)">
<path d="M9.77906 5.38745L8.17594 6.89057L6.42969 4.71432C7.83344 4.26245 9.14469 4.78807 9.77906 5.38745Z" fill="url(#paint33_linear_1108_9590)"/>
</g>
<g filter="url(#filter3_f_1108_9590)">
<path d="M11.865 8.49489C12.1442 8.49489 12.3706 8.26852 12.3706 7.98927C12.3706 7.71002 12.1442 7.48364 11.865 7.48364C11.5858 7.48364 11.3594 7.71002 11.3594 7.98927C11.3594 8.26852 11.5858 8.49489 11.865 8.49489Z" fill="url(#paint34_radial_1108_9590)"/>
</g>
<g filter="url(#filter4_f_1108_9590)">
<path d="M11.5332 4.82003C12.1051 4.75128 14.0626 5.13253 14.5645 6.8294" stroke="url(#paint35_radial_1108_9590)" stroke-width="0.5" stroke-linecap="round"/>
</g>
<g filter="url(#filter5_f_1108_9590)">
<path d="M14.7309 3.4416C15.2626 3.83553 15.7949 4.01818 15.9198 3.84955C16.0448 3.68093 15.715 3.22488 15.1834 2.83095C14.6517 2.43702 14.1194 2.25437 13.9945 2.423C13.8695 2.59163 14.1993 3.04767 14.7309 3.4416Z" fill="url(#paint36_radial_1108_9590)"/>
</g>
<g filter="url(#filter6_f_1108_9590)">
<path d="M7.46353 3.84228C8.03611 4.2408 8.69417 4.28527 8.93336 3.94161C9.17254 3.59795 8.90228 2.9963 8.3297 2.59779C7.75713 2.19928 7.09907 2.15481 6.85988 2.49847C6.6207 2.84212 6.89096 3.44377 7.46353 3.84228Z" fill="url(#paint37_radial_1108_9590)"/>
</g>
<path d="M9.04648 8.11885C9.20982 8.11885 9.37155 8.08668 9.52245 8.02417C9.67335 7.96167 9.81046 7.87005 9.92595 7.75456C10.0414 7.63907 10.1331 7.50196 10.1956 7.35106C10.2581 7.20016 10.2902 7.03843 10.2902 6.8751C10.2902 6.71177 10.2581 6.55003 10.1956 6.39913C10.1331 6.24824 10.0414 6.11113 9.92595 5.99563C9.81046 5.88014 9.67335 5.78853 9.52245 5.72602C9.37155 5.66352 9.20982 5.63135 9.04648 5.63135C8.71662 5.63135 8.40027 5.76239 8.16702 5.99563C7.93377 6.22888 7.80273 6.54523 7.80273 6.8751C7.80273 7.20496 7.93377 7.52131 8.16702 7.75456C8.40027 7.98781 8.71662 8.11885 9.04648 8.11885Z" fill="url(#paint38_radial_1108_9590)"/>
<path d="M9.04648 8.11885C9.20982 8.11885 9.37155 8.08668 9.52245 8.02417C9.67335 7.96167 9.81046 7.87005 9.92595 7.75456C10.0414 7.63907 10.1331 7.50196 10.1956 7.35106C10.2581 7.20016 10.2902 7.03843 10.2902 6.8751C10.2902 6.71177 10.2581 6.55003 10.1956 6.39913C10.1331 6.24824 10.0414 6.11113 9.92595 5.99563C9.81046 5.88014 9.67335 5.78853 9.52245 5.72602C9.37155 5.66352 9.20982 5.63135 9.04648 5.63135C8.71662 5.63135 8.40027 5.76239 8.16702 5.99563C7.93377 6.22888 7.80273 6.54523 7.80273 6.8751C7.80273 7.20496 7.93377 7.52131 8.16702 7.75456C8.40027 7.98781 8.71662 8.11885 9.04648 8.11885Z" fill="url(#paint39_radial_1108_9590)"/>
<path d="M9.04648 8.11885C9.20982 8.11885 9.37155 8.08668 9.52245 8.02417C9.67335 7.96167 9.81046 7.87005 9.92595 7.75456C10.0414 7.63907 10.1331 7.50196 10.1956 7.35106C10.2581 7.20016 10.2902 7.03843 10.2902 6.8751C10.2902 6.71177 10.2581 6.55003 10.1956 6.39913C10.1331 6.24824 10.0414 6.11113 9.92595 5.99563C9.81046 5.88014 9.67335 5.78853 9.52245 5.72602C9.37155 5.66352 9.20982 5.63135 9.04648 5.63135C8.71662 5.63135 8.40027 5.76239 8.16702 5.99563C7.93377 6.22888 7.80273 6.54523 7.80273 6.8751C7.80273 7.20496 7.93377 7.52131 8.16702 7.75456C8.40027 7.98781 8.71662 8.11885 9.04648 8.11885Z" fill="url(#paint40_radial_1108_9590)"/>
<path d="M9.04648 8.11885C9.20982 8.11885 9.37155 8.08668 9.52245 8.02417C9.67335 7.96167 9.81046 7.87005 9.92595 7.75456C10.0414 7.63907 10.1331 7.50196 10.1956 7.35106C10.2581 7.20016 10.2902 7.03843 10.2902 6.8751C10.2902 6.71177 10.2581 6.55003 10.1956 6.39913C10.1331 6.24824 10.0414 6.11113 9.92595 5.99563C9.81046 5.88014 9.67335 5.78853 9.52245 5.72602C9.37155 5.66352 9.20982 5.63135 9.04648 5.63135C8.71662 5.63135 8.40027 5.76239 8.16702 5.99563C7.93377 6.22888 7.80273 6.54523 7.80273 6.8751C7.80273 7.20496 7.93377 7.52131 8.16702 7.75456C8.40027 7.98781 8.71662 8.11885 9.04648 8.11885Z" fill="url(#paint41_radial_1108_9590)"/>
<g filter="url(#filter7_f_1108_9590)">
<path d="M9.76514 6.97943C9.99643 6.85491 10.0732 6.54823 9.93653 6.29445C9.7999 6.04067 9.50164 5.93589 9.27035 6.06042C9.03906 6.18494 8.96233 6.49162 9.09896 6.7454C9.2356 6.99918 9.53386 7.10396 9.76514 6.97943Z" fill="url(#paint42_radial_1108_9590)"/>
</g>
<defs>
<filter id="filter0_i_1108_9590" x="2.71875" y="13.3875" width="15.4059" height="4.26865" filterUnits="userSpaceOnUse" color-interpolation-filters="sRGB">
<feFlood flood-opacity="0" result="BackgroundImageFix"/>
<feBlend mode="normal" in="SourceGraphic" in2="BackgroundImageFix" result="shape"/>
<feColorMatrix in="SourceAlpha" type="matrix" values="0 0 0 0 0 0 0 0 0 0 0 0 0 0 0 0 0 0 127 0" result="hardAlpha"/>
<feOffset dx="0.15" dy="0.15"/>
<feGaussianBlur stdDeviation="0.25"/>
<feComposite in2="hardAlpha" operator="arithmetic" k2="-1" k3="1"/>
<feColorMatrix type="matrix" values="0 0 0 0 0.858824 0 0 0 0 0.611765 0 0 0 0 0.545098 0 0 0 1 0"/>
<feBlend mode="normal" in2="shape" result="effect1_innerShadow_1108_9590"/>
</filter>
<filter id="filter1_ii_1108_9590" x="1.05664" y="16.0063" width="18.25" height="2.125" filterUnits="userSpaceOnUse" color-interpolation-filters="sRGB">
<feFlood flood-opacity="0" result="BackgroundImageFix"/>
<feBlend mode="normal" in="SourceGraphic" in2="BackgroundImageFix" result="shape"/>
<feColorMatrix in="SourceAlpha" type="matrix" values="0 0 0 0 0 0 0 0 0 0 0 0 0 0 0 0 0 0 127 0" result="hardAlpha"/>
<feOffset dx="-0.5"/>
<feGaussianBlur stdDeviation="0.375"/>
<feComposite in2="hardAlpha" operator="arithmetic" k2="-1" k3="1"/>
<feColorMatrix type="matrix" values="0 0 0 0 0.572549 0 0 0 0 0.952941 0 0 0 0 1 0 0 0 1 0"/>
<feBlend mode="normal" in2="shape" result="effect1_innerShadow_1108_9590"/>
<feColorMatrix in="SourceAlpha" type="matrix" values="0 0 0 0 0 0 0 0 0 0 0 0 0 0 0 0 0 0 127 0" result="hardAlpha"/>
<feOffset dx="0.25" dy="-0.25"/>
<feGaussianBlur stdDeviation="0.375"/>
<feComposite in2="hardAlpha" operator="arithmetic" k2="-1" k3="1"/>
<feColorMatrix type="matrix" values="0 0 0 0 0.341176 0 0 0 0 0.411765 0 0 0 0 0.952941 0 0 0 1 0"/>
<feBlend mode="normal" in2="effect1_innerShadow_1108_9590" result="effect2_innerShadow_1108_9590"/>
</filter>
<filter id="filter2_f_1108_9590" x="5.92969" y="4.04419" width="4.34961" height="3.34644" filterUnits="userSpaceOnUse" color-interpolation-filters="sRGB">
<feFlood flood-opacity="0" result="BackgroundImageFix"/>
<feBlend mode="normal" in="SourceGraphic" in2="BackgroundImageFix" result="shape"/>
<feGaussianBlur stdDeviation="0.25" result="effect1_foregroundBlur_1108_9590"/>
</filter>
<filter id="filter3_f_1108_9590" x="10.3594" y="6.48364" width="3.01172" height="3.01123" filterUnits="userSpaceOnUse" color-interpolation-filters="sRGB">
<feFlood flood-opacity="0" result="BackgroundImageFix"/>
<feBlend mode="normal" in="SourceGraphic" in2="BackgroundImageFix" result="shape"/>
<feGaussianBlur stdDeviation="0.5" result="effect1_foregroundBlur_1108_9590"/>
</filter>
<filter id="filter4_f_1108_9590" x="10.7832" y="4.0625" width="4.53125" height="3.51709" filterUnits="userSpaceOnUse" color-interpolation-filters="sRGB">
<feFlood flood-opacity="0" result="BackgroundImageFix"/>
<feBlend mode="normal" in="SourceGraphic" in2="BackgroundImageFix" result="shape"/>
<feGaussianBlur stdDeviation="0.25" result="effect1_foregroundBlur_1108_9590"/>
</filter>
<filter id="filter5_f_1108_9590" x="13.2188" y="1.61011" width="3.47656" height="3.05225" filterUnits="userSpaceOnUse" color-interpolation-filters="sRGB">
<feFlood flood-opacity="0" result="BackgroundImageFix"/>
<feBlend mode="normal" in="SourceGraphic" in2="BackgroundImageFix" result="shape"/>
<feGaussianBlur stdDeviation="0.375" result="effect1_foregroundBlur_1108_9590"/>
</filter>
<filter id="filter6_f_1108_9590" x="6.02344" y="1.51709" width="3.74609" height="3.40576" filterUnits="userSpaceOnUse" color-interpolation-filters="sRGB">
<feFlood flood-opacity="0" result="BackgroundImageFix"/>
<feBlend mode="normal" in="SourceGraphic" in2="BackgroundImageFix" result="shape"/>
<feGaussianBlur stdDeviation="0.375" result="effect1_foregroundBlur_1108_9590"/>
</filter>
<filter id="filter7_f_1108_9590" x="8.03125" y="5.00806" width="2.97266" height="3.02393" filterUnits="userSpaceOnUse" color-interpolation-filters="sRGB">
<feFlood flood-opacity="0" result="BackgroundImageFix"/>
<feBlend mode="normal" in="SourceGraphic" in2="BackgroundImageFix" result="shape"/>
<feGaussianBlur stdDeviation="0.5" result="effect1_foregroundBlur_1108_9590"/>
</filter>
<linearGradient id="paint0_linear_1108_9590" x1="8.74672" y1="10.8863" x2="11.8648" y2="10.8863" gradientUnits="userSpaceOnUse">
<stop stop-color="#56322E"/>
<stop offset="0.476" stop-color="#7E4D54"/>
<stop offset="1" stop-color="#906C65"/>
</linearGradient>
<linearGradient id="paint1_linear_1108_9590" x1="11.1217" y1="6.32885" x2="11.0042" y2="9.66322" gradientUnits="userSpaceOnUse">
<stop stop-color="#734951"/>
<stop offset="1" stop-color="#734951" stop-opacity="0"/>
</linearGradient>
<radialGradient id="paint2_radial_1108_9590" cx="0" cy="0" r="1" gradientUnits="userSpaceOnUse" gradientTransform="translate(10.5042 5.77635) rotate(61.6891) scale(2.7132 0.787652)">
<stop stop-color="#4B2231"/>
<stop offset="1" stop-color="#4B2231" stop-opacity="0"/>
</radialGradient>
<radialGradient id="paint3_radial_1108_9590" cx="0" cy="0" r="1" gradientUnits="userSpaceOnUse" gradientTransform="translate(10.3055 5.68822) rotate(134.891) scale(2.93662 0.590259)">
<stop stop-color="#4B2231"/>
<stop offset="1" stop-color="#4B2231" stop-opacity="0"/>
</radialGradient>
<radialGradient id="paint4_radial_1108_9590" cx="0" cy="0" r="1" gradientUnits="userSpaceOnUse" gradientTransform="translate(10.5042 7.52635) rotate(118.377) scale(2.18944 1.56782)">
<stop stop-color="#422026"/>
<stop offset="1" stop-color="#422026" stop-opacity="0"/>
</radialGradient>
<radialGradient id="paint5_radial_1108_9590" cx="0" cy="0" r="1" gradientUnits="userSpaceOnUse" gradientTransform="translate(10.6023 13.5607) rotate(-90) scale(1.05469 3.4375)">
<stop stop-color="#733629"/>
<stop offset="1" stop-color="#733629" stop-opacity="0"/>
</radialGradient>
<radialGradient id="paint6_radial_1108_9590" cx="0" cy="0" r="1" gradientUnits="userSpaceOnUse" gradientTransform="translate(10.6611 8.97135) rotate(90) scale(2.08984 1.09375)">
<stop stop-color="#63353B"/>
<stop offset="1" stop-color="#63353B" stop-opacity="0"/>
</radialGradient>
<radialGradient id="paint7_radial_1108_9590" cx="0" cy="0" r="1" gradientUnits="userSpaceOnUse" gradientTransform="translate(7.77507 3.11875) rotate(91.3983) scale(2.92638 6.7515)">
<stop stop-color="#9ED141"/>
<stop offset="1" stop-color="#799D4B"/>
</radialGradient>
<radialGradient id="paint8_radial_1108_9590" cx="0" cy="0" r="1" gradientUnits="userSpaceOnUse" gradientTransform="translate(7.06382 3.8325) rotate(90) scale(1.48009 3.85893)">
<stop stop-color="#9AC644"/>
<stop offset="1" stop-color="#9AC644" stop-opacity="0"/>
</radialGradient>
<linearGradient id="paint9_linear_1108_9590" x1="9.85319" y1="5.49125" x2="9.04382" y2="4.16063" gradientUnits="userSpaceOnUse">
<stop stop-color="#5D9501"/>
<stop offset="1" stop-color="#5D9501" stop-opacity="0"/>
</linearGradient>
<linearGradient id="paint10_linear_1108_9590" x1="5.80632" y1="5.56" x2="5.80632" y2="4.96125" gradientUnits="userSpaceOnUse">
<stop stop-color="#9C99A6"/>
<stop offset="1" stop-color="#9C99A6" stop-opacity="0"/>
</linearGradient>
<radialGradient id="paint11_radial_1108_9590" cx="0" cy="0" r="1" gradientUnits="userSpaceOnUse" gradientTransform="translate(6.11882 5.3125) rotate(160.981) scale(2.29988 0.923996)">
<stop stop-color="#66981B"/>
<stop offset="1" stop-color="#66981B" stop-opacity="0"/>
</radialGradient>
<radialGradient id="paint12_radial_1108_9590" cx="0" cy="0" r="1" gradientUnits="userSpaceOnUse" gradientTransform="translate(7.78569 4.6975) rotate(176.376) scale(4.99794 4.14138)">
<stop offset="0.747" stop-color="#82AB5A" stop-opacity="0"/>
<stop offset="0.984" stop-color="#82AB5A"/>
</radialGradient>
<radialGradient id="paint13_radial_1108_9590" cx="0" cy="0" r="1" gradientUnits="userSpaceOnUse" gradientTransform="translate(15.1731 16.2168) rotate(180) scale(7.85156 6.67781)">
<stop stop-color="#FFC351"/>
<stop offset="1" stop-color="#F07B4C"/>
</radialGradient>
<radialGradient id="paint14_radial_1108_9590" cx="0" cy="0" r="1" gradientUnits="userSpaceOnUse" gradientTransform="translate(15.9728 4.11437) rotate(180) scale(8.097 8.52194)">
<stop stop-color="#A3D350"/>
<stop offset="1" stop-color="#679E15"/>
</radialGradient>
<radialGradient id="paint15_radial_1108_9590" cx="0" cy="0" r="1" gradientUnits="userSpaceOnUse" gradientTransform="translate(15.5809 3.69062) rotate(180) scale(4.61993 2.61119)">
<stop stop-color="#A3CF56"/>
<stop offset="1" stop-color="#A3CF56" stop-opacity="0"/>
</radialGradient>
<linearGradient id="paint16_linear_1108_9590" x1="14.8884" y1="5.78125" x2="14.8884" y2="4.98062" gradientUnits="userSpaceOnUse">
<stop stop-color="#95A096"/>
<stop offset="1" stop-color="#95A096" stop-opacity="0"/>
</linearGradient>
<radialGradient id="paint17_radial_1108_9590" cx="0" cy="0" r="1" gradientUnits="userSpaceOnUse" gradientTransform="translate(13.6458 5.88564) rotate(136.119) scale(2.26969 3.94314)">
<stop stop-color="#74A550"/>
<stop offset="1" stop-color="#517D2A"/>
</radialGradient>
<radialGradient id="paint18_radial_1108_9590" cx="0" cy="0" r="1" gradientUnits="userSpaceOnUse" gradientTransform="translate(12.2574 8.3987) rotate(-47.7616) scale(1.12501 4.63106)">
<stop stop-color="#576043"/>
<stop offset="1" stop-color="#576043" stop-opacity="0"/>
</radialGradient>
<radialGradient id="paint19_radial_1108_9590" cx="0" cy="0" r="1" gradientUnits="userSpaceOnUse" gradientTransform="translate(8.70806 4.86683) rotate(30.391) scale(7.50025 6.94225)">
<stop offset="0.757" stop-color="#6C9543" stop-opacity="0"/>
<stop offset="1" stop-color="#6C9543"/>
</radialGradient>
<radialGradient id="paint20_radial_1108_9590" cx="0" cy="0" r="1" gradientUnits="userSpaceOnUse" gradientTransform="translate(11.7406 7.32683) rotate(-103.229) scale(1.3151 0.66594)">
<stop stop-color="#3E6A0C"/>
<stop offset="1" stop-color="#3E6A0C" stop-opacity="0"/>
</radialGradient>
<linearGradient id="paint21_linear_1108_9590" x1="11.8399" y1="7.74808" x2="12.2693" y2="7.31808" gradientUnits="userSpaceOnUse">
<stop stop-color="#394B28"/>
<stop offset="1" stop-color="#394B28" stop-opacity="0"/>
</linearGradient>
<radialGradient id="paint22_radial_1108_9590" cx="0" cy="0" r="1" gradientUnits="userSpaceOnUse" gradientTransform="translate(8.5332 6.44055) rotate(118.593) scale(4.39565 3.9918)">
<stop stop-color="#65943F"/>
<stop offset="1" stop-color="#4C712C"/>
</radialGradient>
<radialGradient id="paint23_radial_1108_9590" cx="0" cy="0" r="1" gradientUnits="userSpaceOnUse" gradientTransform="translate(7.66295 7.0045) rotate(134.648) scale(2.46916 0.743987)">
<stop stop-color="#69785C"/>
<stop offset="1" stop-color="#69785C" stop-opacity="0"/>
</radialGradient>
<radialGradient id="paint24_radial_1108_9590" cx="0" cy="0" r="1" gradientUnits="userSpaceOnUse" gradientTransform="translate(8.23382 6.91243) rotate(133.788) scale(1.35683 1.28376)">
<stop stop-color="#4E5E45"/>
<stop offset="1" stop-color="#4E5E45" stop-opacity="0"/>
</radialGradient>
<linearGradient id="paint25_linear_1108_9590" x1="7.4382" y1="7.8468" x2="7.25945" y2="7.68368" gradientUnits="userSpaceOnUse">
<stop stop-color="#617247"/>
<stop offset="1" stop-color="#617247" stop-opacity="0"/>
</linearGradient>
<radialGradient id="paint26_radial_1108_9590" cx="0" cy="0" r="1" gradientUnits="userSpaceOnUse" gradientTransform="translate(11.8607 8.13135) rotate(130.622) scale(1.84493 2.32812)">
<stop stop-color="#B97056"/>
<stop offset="1" stop-color="#82582F"/>
</radialGradient>
<radialGradient id="paint27_radial_1108_9590" cx="0" cy="0" r="1" gradientUnits="userSpaceOnUse" gradientTransform="translate(11.2945 9.38135) rotate(-83.4151) scale(1.36254 1.49594)">
<stop stop-color="#B5547D"/>
<stop offset="1" stop-color="#B5547D" stop-opacity="0"/>
</radialGradient>
<radialGradient id="paint28_radial_1108_9590" cx="0" cy="0" r="1" gradientUnits="userSpaceOnUse" gradientTransform="translate(12.1777 9.31178) rotate(-125.655) scale(0.276431 0.892244)">
<stop stop-color="#AD619B"/>
<stop offset="1" stop-color="#AD619B" stop-opacity="0"/>
</radialGradient>
<radialGradient id="paint29_radial_1108_9590" cx="0" cy="0" r="1" gradientUnits="userSpaceOnUse" gradientTransform="translate(10.3076 8.92635) rotate(-32.9052) scale(0.395478 0.65229)">
<stop stop-color="#AD619B"/>
<stop offset="1" stop-color="#AD619B" stop-opacity="0"/>
</radialGradient>
<radialGradient id="paint30_radial_1108_9590" cx="0" cy="0" r="1" gradientUnits="userSpaceOnUse" gradientTransform="translate(10.442 9.00322) rotate(-33.947) scale(2.8223 2.50681)">
<stop offset="0.817" stop-color="#AC794F" stop-opacity="0"/>
<stop offset="1" stop-color="#AC794F"/>
</radialGradient>
<radialGradient id="paint31_radial_1108_9590" cx="0" cy="0" r="1" gradientUnits="userSpaceOnUse" gradientTransform="translate(10.2832 7.5551) rotate(90) scale(0.994944 0.336969)">
<stop stop-color="#893E2F"/>
<stop offset="1" stop-color="#893E2F" stop-opacity="0"/>
</radialGradient>
<linearGradient id="paint32_linear_1108_9590" x1="2.24352" y1="18.1313" x2="18.7666" y2="18.1313" gradientUnits="userSpaceOnUse">
<stop stop-color="#5884FF"/>
<stop offset="1" stop-color="#6DD5FF"/>
</linearGradient>
<linearGradient id="paint33_linear_1108_9590" x1="9.05344" y1="5.46557" x2="7.05531" y2="5.86557" gradientUnits="userSpaceOnUse">
<stop stop-color="#7C9D5A"/>
<stop offset="1" stop-color="#7C9D5A" stop-opacity="0"/>
</linearGradient>
<radialGradient id="paint34_radial_1108_9590" cx="0" cy="0" r="1" gradientUnits="userSpaceOnUse" gradientTransform="translate(12.1085 7.87405) rotate(151.44) scale(1.48178)">
<stop stop-color="#D79F87"/>
<stop offset="1" stop-color="#D79F87" stop-opacity="0"/>
</radialGradient>
<radialGradient id="paint35_radial_1108_9590" cx="0" cy="0" r="1" gradientUnits="userSpaceOnUse" gradientTransform="translate(13.6638 5.13153) rotate(132.065) scale(0.956713 2.87516)">
<stop stop-color="#80B35C"/>
<stop offset="1" stop-color="#80B35C" stop-opacity="0"/>
</radialGradient>
<radialGradient id="paint36_radial_1108_9590" cx="0" cy="0" r="1" gradientUnits="userSpaceOnUse" gradientTransform="translate(15.9561 3.73021) rotate(-141.341) scale(2.2183 0.412865)">
<stop stop-color="#C0EF77"/>
<stop offset="1" stop-color="#C0EF77" stop-opacity="0"/>
</radialGradient>
<radialGradient id="paint37_radial_1108_9590" cx="0" cy="0" r="1" gradientUnits="userSpaceOnUse" gradientTransform="translate(9.45759 4.07114) rotate(-152.436) scale(3.10204 1.0882)">
<stop stop-color="#B8E172"/>
<stop offset="1" stop-color="#B8E172" stop-opacity="0"/>
</radialGradient>
<radialGradient id="paint38_radial_1108_9590" cx="0" cy="0" r="1" gradientUnits="userSpaceOnUse" gradientTransform="translate(9.37211 6.8751) rotate(130.622) scale(1.8357 2.31648)">
<stop stop-color="#AA674F"/>
<stop offset="1" stop-color="#82582F"/>
</radialGradient>
<radialGradient id="paint39_radial_1108_9590" cx="0" cy="0" r="1" gradientUnits="userSpaceOnUse" gradientTransform="translate(8.80836 8.11885) rotate(-83.4151) scale(1.35573 1.48846)">
<stop stop-color="#AC4D77"/>
<stop offset="1" stop-color="#AC4D77" stop-opacity="0"/>
</radialGradient>
<radialGradient id="paint40_radial_1108_9590" cx="0" cy="0" r="1" gradientUnits="userSpaceOnUse" gradientTransform="translate(8.65336 8.16197) rotate(-72.2546) scale(0.255054 0.585311)">
<stop stop-color="#AD619B"/>
<stop offset="1" stop-color="#AD619B" stop-opacity="0"/>
</radialGradient>
<radialGradient id="paint41_radial_1108_9590" cx="0" cy="0" r="1" gradientUnits="userSpaceOnUse" gradientTransform="translate(7.96086 7.7426) rotate(-33.947) scale(2.80819 2.49428)">
<stop offset="0.773" stop-color="#AC794F" stop-opacity="0"/>
<stop offset="1" stop-color="#AC794F"/>
</radialGradient>
<radialGradient id="paint42_radial_1108_9590" cx="0" cy="0" r="1" gradientUnits="userSpaceOnUse" gradientTransform="translate(9.66252 6.30586) rotate(120.874) scale(1.426 1.49444)">
<stop stop-color="#D79F87"/>
<stop offset="1" stop-color="#D79F87" stop-opacity="0"/>
</radialGradient>
</defs>
</svg>
