<svg width="24" height="24" viewBox="0 0 24 24" fill="none" xmlns="http://www.w3.org/2000/svg">
<path d="M4.07812 19.9999V18.9999H7.00112V14.4999H5.54012V13.4999H7.02412C7.07079 12.3013 7.52579 11.2829 8.38912 10.4449C9.25246 9.60695 10.2898 9.13295 11.5011 9.02295V4.84595H16.5781V7.69195H12.5011V9.02295C13.7125 9.13361 14.7501 9.60761 15.6141 10.4449C16.4781 11.2823 16.9328 12.3006 16.9781 13.4999H18.4631V14.4999H17.0011V18.9999H19.9241V19.9999H4.07812ZM8.00112 18.9999H11.5011V14.4999H8.00112V18.9999ZM12.5011 18.9999H16.0011V14.4999H12.5011V18.9999ZM8.03513 13.4999H15.9671C15.9131 12.4886 15.4988 11.6523 14.7241 10.9909C13.9501 10.3303 13.0425 9.99995 12.0011 9.99995C10.9598 9.99995 10.0521 10.3303 9.27813 10.9909C8.50413 11.6516 8.08979 12.4879 8.03513 13.4999Z" fill="#FF5532"/>
</svg>
